<svg xmlns="http://www.w3.org/2000/svg">
  <defs>
    <!-- icons will be inserted here -->
    <symbol id="icon-bell" viewBox="0 0 64 80" x="0px" y="0px">
      <g data-name="Layer 37">
        <path d="M61,56H54.97A4.924,4.924,0,0,0,56,53a1,1,0,0,0-1-1H54V50h1a1,1,0,0,0,1-1A23.03,23.03,0,0,0,34.84,26.08C36.34,24.76,38,22.87,38,21a3.807,3.807,0,0,0-6-3.29A3.807,3.807,0,0,0,26,21c0,1.87,1.66,3.76,3.16,5.08A23.03,23.03,0,0,0,8,49a1,1,0,0,0,1,1h1v2H9a1,1,0,0,0-1,1,4.924,4.924,0,0,0,1.03,3H3a1,1,0,0,0-1,1v4a1,1,0,0,0,1,1H61a1,1,0,0,0,1-1V57A1,1,0,0,0,61,56ZM28,21a1.907,1.907,0,0,1,1.11-1.85,1.749,1.749,0,0,1,.67-.14,2.144,2.144,0,0,1,1.51.7,1.008,1.008,0,0,0,1.42,0,1.969,1.969,0,0,1,2.18-.56A1.907,1.907,0,0,1,36,21c0,1.45-2.27,3.55-4,4.79C30.27,24.55,28,22.45,28,21Zm3,7h2A21.034,21.034,0,0,1,53.98,48H10.02A21.034,21.034,0,0,1,31,28ZM53.83,54A3.014,3.014,0,0,1,51,56H13a3.014,3.014,0,0,1-2.83-2ZM12,52V50H52v2Zm48,8H4V58H60Z"/>
        <path d="M30.982,32.028h.057c.317-.018.639-.027.961-.027a1,1,0,0,0,0-2c-.359,0-.717.01-1.072.03a1,1,0,0,0,.054,2Z"/><path d="M14.226,45.975a1,1,0,0,0,1.2-.753A17.008,17.008,0,0,1,27.312,32.657a1,1,0,1,0-.552-1.922A19.008,19.008,0,0,0,13.473,44.778,1,1,0,0,0,14.226,45.975Z"/><path d="M32,13a1,1,0,0,1-1-1V10a1,1,0,0,1,2,0v2A1,1,0,0,1,32,13Z"/><path d="M27,14.34a1,1,0,0,1-.867-.5l-1-1.732a1,1,0,0,1,1.732-1l1,1.732A1,1,0,0,1,27,14.34Z"/><path d="M23.339,18a.992.992,0,0,1-.5-.134l-1.732-1a1,1,0,0,1,1-1.732l1.732,1a1,1,0,0,1-.5,1.866Z"/><path d="M37,14.34a1,1,0,0,1-.865-1.5l1-1.732a1,1,0,1,1,1.732,1l-1,1.732A1,1,0,0,1,37,14.34Z"/><path d="M40.661,18a1,1,0,0,1-.5-1.866l1.732-1a1,1,0,0,1,1,1.732l-1.732,1A.992.992,0,0,1,40.661,18Z"/>
      </g>
    </symbol>
    <symbol id="icon-fork" viewBox="-5.0 -10.0 110.0 135.0">
      <g>
        <path d="m40.469 96.875h-2.9688c-1.7188 0-3.2812-0.78125-4.375-2.0312s-1.7188-2.8125-1.7188-4.5312l1.4062-46.875c0-0.46875-0.15625-0.9375-0.46875-1.25l-5.9375-5.1562c-2.9688-2.1875-4.5312-5.625-4.5312-9.2188v-20c0-2.6562 2.0312-4.6875 4.6875-4.6875s4.6875 2.0312 4.6875 4.6875v12.5c0 0.9375 0.625 1.5625 1.5625 1.5625s1.5625-0.625 1.5625-1.5625v-12.5c0-2.6562 2.0312-4.6875 4.6875-4.6875s4.6875 2.0312 4.6875 4.6875v12.5c0 0.9375 0.625 1.5625 1.5625 1.5625s1.5625-0.625 1.5625-1.5625v-12.5c0-2.6562 2.0312-4.6875 4.6875-4.6875s4.6875 2.0312 4.6875 4.6875v20c0 3.5938-1.5625 7.1875-4.375 9.5312l-5.9375 5.1562c-0.3125 0.3125-0.625 0.78125-0.46875 1.25l1.25 46.875c0 3.4375-2.8125 6.25-6.25 6.25zm-13.906-90.625c-0.9375 0-1.5625 0.625-1.5625 1.5625v20c0 2.8125 1.25 5.3125 3.2812 7.1875l5.9375 5.1562c1.0938 0.9375 1.7188 2.3438 1.5625 3.75l-1.4062 46.875c0 1.7188 1.25 3.125 2.9688 3.2812h2.9688c1.7188 0 3.125-1.4062 3.125-3.125l-1.25-47.188c0-1.4062 0.625-2.8125 1.5625-3.75l5.9375-5.1562c2.0312-1.7188 3.2812-4.375 3.2812-7.1875v-19.844c0-0.9375-0.625-1.5625-1.5625-1.5625s-1.5625 0.625-1.5625 1.5625v12.5c0 2.6562-2.0312 4.6875-4.6875 4.6875s-4.6875-2.0312-4.6875-4.6875v-12.5c0-0.9375-0.625-1.5625-1.5625-1.5625s-1.5625 0.625-1.5625 1.5625v12.5c0 2.6562-2.0312 4.6875-4.6875 4.6875s-4.6875-2.0312-4.6875-4.6875v-12.5c0.15625-0.9375-0.46875-1.5625-1.4062-1.5625z"/>
        <path d="m70.312 96.875h-6.25c-2.6562 0-4.6875-2.0312-4.6875-4.6875v-26.875c0-1.25 0.46875-2.5 1.4062-3.2812l0.3125-0.3125c0.9375-0.9375 1.4062-2.0312 1.4062-3.2812v-55.469l1.7188 0.15625c4.8438 0.625 13.906 3.9062 13.906 12.5v23.438c0 4.6875-1.5625 8.125-4.8438 10.312-0.9375 0.625-1.4062 1.5625-1.4062 2.6562v6.4062c0 1.25 0.46875 2.5 1.4062 3.2812l0.3125 0.3125c0.9375 0.9375 1.4062 2.0312 1.4062 3.2812v26.875c0 2.6562-2.0312 4.6875-4.6875 4.6875zm-4.6875-90.312v51.719c0 2.0312-0.78125 4.0625-2.3438 5.4688l-0.3125 0.3125c-0.3125 0.3125-0.46875 0.625-0.46875 1.0938v27.031c0 0.9375 0.625 1.5625 1.5625 1.5625h6.25c0.9375 0 1.5625-0.625 1.5625-1.5625v-26.875c0-0.46875-0.15625-0.78125-0.46875-1.0938l-0.3125-0.3125c-1.4062-1.4062-2.3438-3.4375-2.3438-5.4688v-6.4062c0-2.0312 1.0938-4.0625 2.8125-5.1562 2.3438-1.5625 3.4375-4.0625 3.4375-7.6562v-23.594c0-5.9375-6.25-8.2812-9.375-9.0625z"/>
      </g>
    </symbol>
  </defs>
</svg>
