<svg xmlns="http://www.w3.org/2000/svg" version="1.1" viewBox="-5.0 -10.0 110.0 135.0">
 <path d="m90.625 68.75h-20.906c7.2656-5.6055 11.523-14.262 11.531-23.438v-1.5625c0-0.82812-0.32812-1.625-0.91406-2.2109-0.58594-0.58594-1.3828-0.91406-2.2109-0.91406h-1.9023c-0.36328-4.0703-1.6797-7.9961-3.8398-11.461l10.867-9.0547c0.65625-0.52344 1.0781-1.293 1.1641-2.1289 0.082032-0.83594-0.17187-1.6719-0.71094-2.3164-0.53516-0.64844-1.3125-1.0508-2.1523-1.1172-0.83594-0.066406-1.668 0.20703-2.3008 0.76172l-10.754 8.9609c-0.92188-0.90234-1.9102-1.7344-2.957-2.4922l5.9609-11.07c0.42188-0.73047 0.52734-1.6016 0.29688-2.4141s-0.78125-1.4961-1.5234-1.8945c-0.74219-0.40234-1.6172-0.48438-2.4219-0.23047-0.80469 0.25391-1.4727 0.82031-1.8516 1.5742l-5.8867 10.934c-7.7422-3.207-16.543-2.543-23.715 1.7891-7.1719 4.332-11.855 11.816-12.617 20.16h-1.9062c-1.7266 0-3.125 1.3984-3.125 3.125v1.5625c0.007812 9.1758 4.2656 17.832 11.531 23.438h-20.906c-1.7266 0-3.125 1.3984-3.125 3.125v9.375c0 0.82812 0.32812 1.625 0.91406 2.2109 0.58594 0.58594 1.3828 0.91406 2.2109 0.91406h3.125v6.25c0 0.82812 0.32812 1.625 0.91406 2.2109 0.58594 0.58594 1.3828 0.91406 2.2109 0.91406h12.5c0.82812 0 1.625-0.32812 2.2109-0.91406 0.58594-0.58594 0.91406-1.3828 0.91406-2.2109v-6.25h37.5v6.25c0 0.82812 0.32812 1.625 0.91406 2.2109 0.58594 0.58594 1.3828 0.91406 2.2109 0.91406h12.5c0.82812 0 1.625-0.32812 2.2109-0.91406 0.58594-0.58594 0.91406-1.3828 0.91406-2.2109v-6.25h3.125c0.82812 0 1.625-0.32812 2.2109-0.91406 0.58594-0.58594 0.91406-1.3828 0.91406-2.2109v-9.375c0-0.82812-0.32812-1.625-0.91406-2.2109-0.58594-0.58594-1.3828-0.91406-2.2109-0.91406zm-40.625-45.832c2.4336 0.003906 4.8477 0.44922 7.1211 1.3164l-4.6641 8.6602c-0.40625 0.73047-0.50391 1.5938-0.26953 2.3945 0.23438 0.80469 0.78125 1.4805 1.5156 1.8789 0.73828 0.39453 1.6016 0.48047 2.4023 0.23438s1.4688-0.80469 1.8516-1.5469l4.5898-8.5234h0.003906c0.57422 0.46094 1.1289 0.94922 1.6523 1.4688 3.1914 3.1797 5.2109 7.3477 5.7305 11.824h-39.867c0.58594-4.8789 2.9375-9.3711 6.6094-12.633 3.6719-3.2617 8.4102-5.0664 13.324-5.0742zm-24.949 23.957h49.898c-0.40625 5.9297-3.043 11.484-7.3828 15.547-4.3398 4.0586-10.059 6.3203-16.004 6.3281h-3.125c-5.9453-0.007812-11.664-2.2695-16.004-6.3281-4.3398-4.0625-6.9766-9.6172-7.3828-15.547zm-0.050781 40.625h-6.25v-3.125h6.25zm56.25 0h-6.25v-3.125h6.25zm3.125-9.375h-71.875v-3.125h75v3.125z"/>
<text x="0.0" y="117.5" font-size="5.0" font-weight="bold" font-family="Arbeit Regular, Helvetica, Arial-Unicode, Arial, Sans-serif" fill="#000000">Created by ghufronagustian</text><text x="0.0" y="122.5" font-size="5.0" font-weight="bold" font-family="Arbeit Regular, Helvetica, Arial-Unicode, Arial, Sans-serif" fill="#000000">from Noun Project</text></svg>