<svg xmlns="http://www.w3.org/2000/svg" version="1.1" viewBox="-5.0 -10.0 110.0 135.0">
 <g>
  <path d="m40.469 96.875h-2.9688c-1.7188 0-3.2812-0.78125-4.375-2.0312s-1.7188-2.8125-1.7188-4.5312l1.4062-46.875c0-0.46875-0.15625-0.9375-0.46875-1.25l-5.9375-5.1562c-2.9688-2.1875-4.5312-5.625-4.5312-9.2188v-20c0-2.6562 2.0312-4.6875 4.6875-4.6875s4.6875 2.0312 4.6875 4.6875v12.5c0 0.9375 0.625 1.5625 1.5625 1.5625s1.5625-0.625 1.5625-1.5625v-12.5c0-2.6562 2.0312-4.6875 4.6875-4.6875s4.6875 2.0312 4.6875 4.6875v12.5c0 0.9375 0.625 1.5625 1.5625 1.5625s1.5625-0.625 1.5625-1.5625v-12.5c0-2.6562 2.0312-4.6875 4.6875-4.6875s4.6875 2.0312 4.6875 4.6875v20c0 3.5938-1.5625 7.1875-4.375 9.5312l-5.9375 5.1562c-0.3125 0.3125-0.625 0.78125-0.46875 1.25l1.25 46.875c0 3.4375-2.8125 6.25-6.25 6.25zm-13.906-90.625c-0.9375 0-1.5625 0.625-1.5625 1.5625v20c0 2.8125 1.25 5.3125 3.2812 7.1875l5.9375 5.1562c1.0938 0.9375 1.7188 2.3438 1.5625 3.75l-1.4062 46.875c0 1.7188 1.25 3.125 2.9688 3.2812h2.9688c1.7188 0 3.125-1.4062 3.125-3.125l-1.25-47.188c0-1.4062 0.625-2.8125 1.5625-3.75l5.9375-5.1562c2.0312-1.7188 3.2812-4.375 3.2812-7.1875v-19.844c0-0.9375-0.625-1.5625-1.5625-1.5625s-1.5625 0.625-1.5625 1.5625v12.5c0 2.6562-2.0312 4.6875-4.6875 4.6875s-4.6875-2.0312-4.6875-4.6875v-12.5c0-0.9375-0.625-1.5625-1.5625-1.5625s-1.5625 0.625-1.5625 1.5625v12.5c0 2.6562-2.0312 4.6875-4.6875 4.6875s-4.6875-2.0312-4.6875-4.6875v-12.5c0.15625-0.9375-0.46875-1.5625-1.4062-1.5625z"/>
  <path d="m70.312 96.875h-6.25c-2.6562 0-4.6875-2.0312-4.6875-4.6875v-26.875c0-1.25 0.46875-2.5 1.4062-3.2812l0.3125-0.3125c0.9375-0.9375 1.4062-2.0312 1.4062-3.2812v-55.469l1.7188 0.15625c4.8438 0.625 13.906 3.9062 13.906 12.5v23.438c0 4.6875-1.5625 8.125-4.8438 10.312-0.9375 0.625-1.4062 1.5625-1.4062 2.6562v6.4062c0 1.25 0.46875 2.5 1.4062 3.2812l0.3125 0.3125c0.9375 0.9375 1.4062 2.0312 1.4062 3.2812v26.875c0 2.6562-2.0312 4.6875-4.6875 4.6875zm-4.6875-90.312v51.719c0 2.0312-0.78125 4.0625-2.3438 5.4688l-0.3125 0.3125c-0.3125 0.3125-0.46875 0.625-0.46875 1.0938v27.031c0 0.9375 0.625 1.5625 1.5625 1.5625h6.25c0.9375 0 1.5625-0.625 1.5625-1.5625v-26.875c0-0.46875-0.15625-0.78125-0.46875-1.0938l-0.3125-0.3125c-1.4062-1.4062-2.3438-3.4375-2.3438-5.4688v-6.4062c0-2.0312 1.0938-4.0625 2.8125-5.1562 2.3438-1.5625 3.4375-4.0625 3.4375-7.6562v-23.594c0-5.9375-6.25-8.2812-9.375-9.0625z"/>
 </g>
<text x="0.0" y="117.5" font-size="5.0" font-weight="bold" font-family="Arbeit Regular, Helvetica, Arial-Unicode, Arial, Sans-serif" fill="#000000">Created by I Putu Kharismayadi</text><text x="0.0" y="122.5" font-size="5.0" font-weight="bold" font-family="Arbeit Regular, Helvetica, Arial-Unicode, Arial, Sans-serif" fill="#000000">from Noun Project</text></svg>