<svg xmlns="http://www.w3.org/2000/svg" viewBox="0 0 64 80" x="0px" y="0px"><g data-name="Layer 37"><path d="M61,56H54.97A4.924,4.924,0,0,0,56,53a1,1,0,0,0-1-1H54V50h1a1,1,0,0,0,1-1A23.03,23.03,0,0,0,34.84,26.08C36.34,24.76,38,22.87,38,21a3.807,3.807,0,0,0-6-3.29A3.807,3.807,0,0,0,26,21c0,1.87,1.66,3.76,3.16,5.08A23.03,23.03,0,0,0,8,49a1,1,0,0,0,1,1h1v2H9a1,1,0,0,0-1,1,4.924,4.924,0,0,0,1.03,3H3a1,1,0,0,0-1,1v4a1,1,0,0,0,1,1H61a1,1,0,0,0,1-1V57A1,1,0,0,0,61,56ZM28,21a1.907,1.907,0,0,1,1.11-1.85,1.749,1.749,0,0,1,.67-.14,2.144,2.144,0,0,1,1.51.7,1.008,1.008,0,0,0,1.42,0,1.969,1.969,0,0,1,2.18-.56A1.907,1.907,0,0,1,36,21c0,1.45-2.27,3.55-4,4.79C30.27,24.55,28,22.45,28,21Zm3,7h2A21.034,21.034,0,0,1,53.98,48H10.02A21.034,21.034,0,0,1,31,28ZM53.83,54A3.014,3.014,0,0,1,51,56H13a3.014,3.014,0,0,1-2.83-2ZM12,52V50H52v2Zm48,8H4V58H60Z"/><path d="M30.982,32.028h.057c.317-.018.639-.027.961-.027a1,1,0,0,0,0-2c-.359,0-.717.01-1.072.03a1,1,0,0,0,.054,2Z"/><path d="M14.226,45.975a1,1,0,0,0,1.2-.753A17.008,17.008,0,0,1,27.312,32.657a1,1,0,1,0-.552-1.922A19.008,19.008,0,0,0,13.473,44.778,1,1,0,0,0,14.226,45.975Z"/><path d="M32,13a1,1,0,0,1-1-1V10a1,1,0,0,1,2,0v2A1,1,0,0,1,32,13Z"/><path d="M27,14.34a1,1,0,0,1-.867-.5l-1-1.732a1,1,0,0,1,1.732-1l1,1.732A1,1,0,0,1,27,14.34Z"/><path d="M23.339,18a.992.992,0,0,1-.5-.134l-1.732-1a1,1,0,0,1,1-1.732l1.732,1a1,1,0,0,1-.5,1.866Z"/><path d="M37,14.34a1,1,0,0,1-.865-1.5l1-1.732a1,1,0,1,1,1.732,1l-1,1.732A1,1,0,0,1,37,14.34Z"/><path d="M40.661,18a1,1,0,0,1-.5-1.866l1.732-1a1,1,0,0,1,1,1.732l-1.732,1A.992.992,0,0,1,40.661,18Z"/></g><text x="0" y="79" fill="#000000" font-size="5px" font-weight="bold" font-family="'Helvetica Neue', Helvetica, Arial-Unicode, Arial, Sans-serif">Created by sripfoto</text><text x="0" y="84" fill="#000000" font-size="5px" font-weight="bold" font-family="'Helvetica Neue', Helvetica, Arial-Unicode, Arial, Sans-serif">from the Noun Project</text></svg>